<svg id="visual" viewBox="0 0 900 600" width="900" height="600" xmlns="http://www.w3.org/2000/svg" xmlns:xlink="http://www.w3.org/1999/xlink" version="1.1"><rect x="0" y="0" width="900" height="600" fill="#000d17"></rect><path d="M0 309L21.5 311C43 313 86 317 128.8 328.2C171.7 339.3 214.3 357.7 257.2 361.5C300 365.3 343 354.7 385.8 353.5C428.7 352.3 471.3 360.7 514.2 361.5C557 362.3 600 355.7 642.8 354.8C685.7 354 728.3 359 771.2 357.5C814 356 857 348 878.5 344L900 340L900 601L878.5 601C857 601 814 601 771.2 601C728.3 601 685.7 601 642.8 601C600 601 557 601 514.2 601C471.3 601 428.7 601 385.8 601C343 601 300 601 257.2 601C214.3 601 171.7 601 128.8 601C86 601 43 601 21.5 601L0 601Z" fill="#ff0ac4"></path><path d="M0 434L21.5 431.2C43 428.3 86 422.7 128.8 414.2C171.7 405.7 214.3 394.3 257.2 390.8C300 387.3 343 391.7 385.8 390.5C428.7 389.3 471.3 382.7 514.2 389.7C557 396.7 600 417.3 642.8 426.7C685.7 436 728.3 434 771.2 421.8C814 409.7 857 387.3 878.5 376.2L900 365L900 601L878.5 601C857 601 814 601 771.2 601C728.3 601 685.7 601 642.8 601C600 601 557 601 514.2 601C471.3 601 428.7 601 385.8 601C343 601 300 601 257.2 601C214.3 601 171.7 601 128.8 601C86 601 43 601 21.5 601L0 601Z" fill="#e51dbc"></path><path d="M0 405L21.5 409C43 413 86 421 128.8 433.3C171.7 445.7 214.3 462.3 257.2 460.3C300 458.3 343 437.7 385.8 428.3C428.7 419 471.3 421 514.2 422.5C557 424 600 425 642.8 434.5C685.7 444 728.3 462 771.2 472.3C814 482.7 857 485.3 878.5 486.7L900 488L900 601L878.5 601C857 601 814 601 771.2 601C728.3 601 685.7 601 642.8 601C600 601 557 601 514.2 601C471.3 601 428.7 601 385.8 601C343 601 300 601 257.2 601C214.3 601 171.7 601 128.8 601C86 601 43 601 21.5 601L0 601Z" fill="#cb25b3"></path><path d="M0 503L21.5 499.2C43 495.3 86 487.7 128.8 487.2C171.7 486.7 214.3 493.3 257.2 501.2C300 509 343 518 385.8 516.2C428.7 514.3 471.3 501.7 514.2 493.5C557 485.3 600 481.7 642.8 479.3C685.7 477 728.3 476 771.2 477.7C814 479.3 857 483.7 878.5 485.8L900 488L900 601L878.5 601C857 601 814 601 771.2 601C728.3 601 685.7 601 642.8 601C600 601 557 601 514.2 601C471.3 601 428.7 601 385.8 601C343 601 300 601 257.2 601C214.3 601 171.7 601 128.8 601C86 601 43 601 21.5 601L0 601Z" fill="#b229a9"></path><path d="M0 550L21.5 549.3C43 548.7 86 547.3 128.8 546.2C171.7 545 214.3 544 257.2 543.3C300 542.7 343 542.3 385.8 541.5C428.7 540.7 471.3 539.3 514.2 539.5C557 539.7 600 541.3 642.8 542C685.7 542.7 728.3 542.3 771.2 539.8C814 537.3 857 532.7 878.5 530.3L900 528L900 601L878.5 601C857 601 814 601 771.2 601C728.3 601 685.7 601 642.8 601C600 601 557 601 514.2 601C471.3 601 428.7 601 385.8 601C343 601 300 601 257.2 601C214.3 601 171.7 601 128.8 601C86 601 43 601 21.5 601L0 601Z" fill="#9a2b9d"></path></svg>